<svg xmlns="http://www.w3.org/2000/svg" viewBox="0 0 35 35"><defs><style>.cls-1{fill:#4a3b6c;}.cls-2{fill:#fff;}</style></defs><title>prospectos</title><g id="Capa_2" data-name="Capa 2"><g id="Capa_3" data-name="Capa 3"><circle class="cls-1" cx="17.5" cy="17.5" r="17.5"/><polygon class="cls-2" points="9.79 11 14.75 17.99 14.76 17.99 14.76 18 20.24 18 20.24 17.99 20.25 17.99 25.21 11 9.79 11"/><path class="cls-2" d="M9.08,10H25.92l.2-.28a.75.75,0,0,0,.05-.79.74.74,0,0,0-.67-.41H9.5a.74.74,0,0,0-.67.41.75.75,0,0,0,.05.79Z"/><path class="cls-2" d="M15.08,19v6.72a.77.77,0,0,0,.22.54.75.75,0,0,0,.53.22.77.77,0,0,0,.3-.06l3.29-1.26a.71.71,0,0,0,.5-.7V19Z"/></g></g></svg>