<svg xmlns="http://www.w3.org/2000/svg" viewBox="0 0 35 35"><defs><style>.cls-1{fill:#4a3b6c;}.cls-2{fill:#fff;}</style></defs><title>desarrollos</title><g id="Capa_2" data-name="Capa 2"><g id="Capa_3" data-name="Capa 3"><circle class="cls-1" cx="17.5" cy="17.5" r="17.5"/><path class="cls-2" d="M16.56,8,7.09,15.07a1.47,1.47,0,0,0,1.75,2.35l.9-.67v9.08A1.46,1.46,0,0,0,11.2,27.3H23.68a1.46,1.46,0,0,0,1.46-1.47V16.67l1,.75a1.49,1.49,0,0,0,.87.29,1.47,1.47,0,0,0,.87-2.65L18.31,8A1.46,1.46,0,0,0,16.56,8ZM20,15.57l-.3,2.11A5.52,5.52,0,0,0,17.51,17c-.41,0-.59.17-.59.44s.19.44.75.62l.46.15a2.63,2.63,0,0,1,2.11,2.53,2.5,2.5,0,0,1-1.79,2.48v.91H16.27v-.84a5.33,5.33,0,0,1-1.77-.68l.29-2.14a4.69,4.69,0,0,0,2.45.89c.49,0,.69-.21.69-.45s-.18-.44-.82-.66l-.46-.15a2.55,2.55,0,0,1-2-2.53,2.46,2.46,0,0,1,1.6-2.35v-1h2.18v.81A7.12,7.12,0,0,1,20,15.57Z"/></g></g></svg>