<svg height="512" viewBox="0 0 512 512" width="512" xmlns="http://www.w3.org/2000/svg"><g id="Filled_outline" data-name="Filled outline"><path d="m112 48h288v440h-288z" fill="#f96d00"/><path d="m336 392h32v64h-32z" fill="#348ed8"/><path d="m208 392h96v64h-96z" fill="#348ed8"/><path d="m144 392h32v64h-32z" fill="#348ed8"/><path d="m112 24h288v24h-288z" fill="#ff7d19"/><path d="m232 80h16v16h-16z" fill="#f76400"/><path d="m200 80h16v16h-16z" fill="#f76400"/><path d="m168 80h16v16h-16z" fill="#f76400"/><path d="m136 80h16v16h-16z" fill="#f76400"/><path d="m360 80h16v16h-16z" fill="#f76400"/><path d="m328 80h16v16h-16z" fill="#f76400"/><path d="m296 80h16v16h-16z" fill="#f76400"/><path d="m264 80h16v16h-16z" fill="#f76400"/><path d="m96 456h320v32h-320z" fill="#dfdfdd"/><path d="m208 456h96v32h-96z" fill="#d5d5d3"/><path d="m272 104h32v64h-32z" fill="#348ed8"/><path d="m336 104h32v64h-32z" fill="#348ed8"/><path d="m208 104h32v64h-32z" fill="#348ed8"/><path d="m144 104h32v64h-32z" fill="#348ed8"/><path d="m272 200h32v64h-32z" fill="#348ed8"/><path d="m336 200h32v64h-32z" fill="#348ed8"/><path d="m208 200h32v64h-32z" fill="#348ed8"/><path d="m144 200h32v64h-32z" fill="#348ed8"/><path d="m272 296h32v64h-32z" fill="#348ed8"/><path d="m336 296h32v64h-32z" fill="#348ed8"/><path d="m208 296h32v64h-32z" fill="#348ed8"/><path d="m144 296h32v64h-32z" fill="#348ed8"/><g fill="#3289d1"><path d="m144 104h32v16h-32z"/><path d="m208 104h32v16h-32z"/><path d="m272 104h32v16h-32z"/><path d="m336 104h32v16h-32z"/><path d="m144 200h32v16h-32z"/><path d="m208 200h32v16h-32z"/><path d="m272 200h32v16h-32z"/><path d="m336 200h32v16h-32z"/><path d="m144 296h32v16h-32z"/><path d="m208 296h32v16h-32z"/><path d="m272 296h32v16h-32z"/><path d="m336 296h32v16h-32z"/><path d="m144 392h32v16h-32z"/><path d="m208 392h96v16h-96z"/><path d="m336 392h32v16h-32z"/></g><path d="m480.611 385.609a22.291 22.291 0 0 0 .235-6.774 20.981 20.981 0 0 0 -41.846 2.639 22.038 22.038 0 0 0 .475 4.563c1.783 8.419-.029 17.128-4.067 24.687a29.126 29.126 0 0 0 -3.289 16.37c1.229 13.854 12.322 24.93 25.893 25.888 16.363 1.156 29.988-12.076 29.988-28.561a29 29 0 0 0 -3.269-13.433 39.259 39.259 0 0 1 -4.12-25.379z" fill="#7eb357"/><path d="m72.611 385.609a22.291 22.291 0 0 0 .235-6.774 20.981 20.981 0 0 0 -41.846 2.639 22.038 22.038 0 0 0 .475 4.563c1.783 8.419-.029 17.128-4.067 24.687a29.126 29.126 0 0 0 -3.289 16.37c1.229 13.854 12.322 24.93 25.893 25.888 16.363 1.156 29.988-12.076 29.988-28.561a29 29 0 0 0 -3.269-13.433 39.259 39.259 0 0 1 -4.12-25.379z" fill="#7eb357"/><path d="m16 480h480v16h-480z" fill="#dfdfdd"/><path d="m400 456h16v24h-16z" fill="#d8d8d6"/><path d="m96 456h16v24h-16z" fill="#eaeae8"/><path d="m120 64h16v16h16v-16h16v16h16v-16h16v16h16v-16h16v16h16v-16h16v16h16v-16h16v16h16v-16h16v16h16v-16h16v16h16v-16h16v304h16v-344a8 8 0 0 0 -8-8h-288a8 8 0 0 0 -8 8v56h16zm0-32h272v16h-272z"/><path d="m312 104a8 8 0 0 0 -8-8h-32a8 8 0 0 0 -8 8v64a8 8 0 0 0 8 8h32a8 8 0 0 0 8-8zm-16 8v16h-16v-16zm-16 48v-16h16v16z"/><path d="m376 104a8 8 0 0 0 -8-8h-32a8 8 0 0 0 -8 8v64a8 8 0 0 0 8 8h32a8 8 0 0 0 8-8zm-16 8v16h-16v-16zm-16 48v-16h16v16z"/><path d="m248 104a8 8 0 0 0 -8-8h-32a8 8 0 0 0 -8 8v64a8 8 0 0 0 8 8h32a8 8 0 0 0 8-8zm-16 8v16h-16v-16zm-16 48v-16h16v16z"/><path d="m184 104a8 8 0 0 0 -8-8h-32a8 8 0 0 0 -8 8v64a8 8 0 0 0 8 8h32a8 8 0 0 0 8-8zm-16 8v16h-16v-16zm-16 48v-16h16v16z"/><path d="m312 200a8 8 0 0 0 -8-8h-32a8 8 0 0 0 -8 8v64a8 8 0 0 0 8 8h32a8 8 0 0 0 8-8zm-16 8v16h-16v-16zm-16 48v-16h16v16z"/><path d="m376 200a8 8 0 0 0 -8-8h-32a8 8 0 0 0 -8 8v64a8 8 0 0 0 8 8h32a8 8 0 0 0 8-8zm-16 8v16h-16v-16zm-16 48v-16h16v16z"/><path d="m248 200a8 8 0 0 0 -8-8h-32a8 8 0 0 0 -8 8v64a8 8 0 0 0 8 8h32a8 8 0 0 0 8-8zm-16 8v16h-16v-16zm-16 48v-16h16v16z"/><path d="m184 200a8 8 0 0 0 -8-8h-32a8 8 0 0 0 -8 8v64a8 8 0 0 0 8 8h32a8 8 0 0 0 8-8zm-16 8v16h-16v-16zm-16 48v-16h16v16z"/><path d="m304 288h-32a8 8 0 0 0 -8 8v64a8 8 0 0 0 8 8h32a8 8 0 0 0 8-8v-64a8 8 0 0 0 -8-8zm-8 16v16h-16v-16zm-16 48v-16h16v16z"/><path d="m368 288h-32a8 8 0 0 0 -8 8v64a8 8 0 0 0 8 8h32a8 8 0 0 0 8-8v-64a8 8 0 0 0 -8-8zm-8 16v16h-16v-16zm-16 48v-16h16v16z"/><path d="m240 288h-32a8 8 0 0 0 -8 8v64a8 8 0 0 0 8 8h32a8 8 0 0 0 8-8v-64a8 8 0 0 0 -8-8zm-8 16v16h-16v-16zm-16 48v-16h16v16z"/><path d="m176 288h-32a8 8 0 0 0 -8 8v64a8 8 0 0 0 8 8h32a8 8 0 0 0 8-8v-64a8 8 0 0 0 -8-8zm-8 16v16h-16v-16zm-16 48v-16h16v16z"/><path d="m468 460.151a35.506 35.506 0 0 0 16.308-8.71 37.127 37.127 0 0 0 7.518-44.149 31.363 31.363 0 0 1 -3.357-20.183 30.291 30.291 0 0 0 .323-9.2 29.366 29.366 0 0 0 -25.5-25.722 28.862 28.862 0 0 0 -22.43 7.145 29.7 29.7 0 0 0 -9.862 22.142 30.05 30.05 0 0 0 .649 6.22c1.28 6.044.109 12.885-3.3 19.261a37.149 37.149 0 0 0 -4.2 20.846 36.691 36.691 0 0 0 27.851 32.327v19.872h-28v-24a8 8 0 0 0 -8-8h-8v-64h-16v64h-16v-56a8 8 0 0 0 -8-8h-32a8 8 0 0 0 -8 8v56h-16v-56a8 8 0 0 0 -8-8h-96a8 8 0 0 0 -8 8v56h-16v-56a8 8 0 0 0 -8-8h-32a8 8 0 0 0 -8 8v56h-16v-352h-16v352h-8a8 8 0 0 0 -8 8v24h-28v-19.849a35.506 35.506 0 0 0 16.308-8.71 37.127 37.127 0 0 0 7.518-44.149 31.363 31.363 0 0 1 -3.357-20.183 30.291 30.291 0 0 0 .323-9.2 29.366 29.366 0 0 0 -25.5-25.722 28.719 28.719 0 0 0 -19.935 5.15l9.292 13.026a12.566 12.566 0 0 1 8.847-2.277 13.234 13.234 0 0 1 11.404 11.676 14.322 14.322 0 0 1 -.146 4.347 47.406 47.406 0 0 0 4.883 30.575 21.129 21.129 0 0 1 -4.237 25.052 19.87 19.87 0 0 1 -5.4 3.586v-47.532h-16v47.523a20.679 20.679 0 0 1 -11.913-16.925 21.2 21.2 0 0 1 2.377-11.894c5.18-9.7 6.9-20.39 4.838-30.115a14.1 14.1 0 0 1 .285-6.928l-15.32-4.613a30.093 30.093 0 0 0 -.618 14.856c1.28 6.044.109 12.885-3.3 19.261a37.15 37.15 0 0 0 -4.2 20.846 36.691 36.691 0 0 0 27.851 32.327v19.872h-28v16h480v-16h-28zm-27.913-33.763a21.2 21.2 0 0 1 2.377-11.894c5.18-9.7 6.9-20.39 4.838-30.115a14.062 14.062 0 0 1 -.3-2.905 13.682 13.682 0 0 1 4.519-10.211 12.634 12.634 0 0 1 8.486-3.263 13.066 13.066 0 0 1 1.486.085 13.234 13.234 0 0 1 11.407 11.677 14.323 14.323 0 0 1 -.146 4.347 47.406 47.406 0 0 0 4.883 30.575 21.129 21.129 0 0 1 -4.236 25.052 19.87 19.87 0 0 1 -5.4 3.586v-47.532h-16.001v47.523a20.679 20.679 0 0 1 -11.913-16.925zm-80.087-26.388v16h-16v-16zm-16 32h16v16h-16zm-48 16h-32v-48h32zm-80-48h32v48h-32zm-48 0v16h-16v-16zm-16 32h16v16h-16zm-48 48v-16h96v16zm112 0v-16h80v16zm96 0v-16h96v16z"/></g></svg>