<?xml version="1.0" encoding="iso-8859-1"?>
<!-- Generator: Adobe Illustrator 21.0.0, SVG Export Plug-In . SVG Version: 6.00 Build 0)  -->
<svg xmlns="http://www.w3.org/2000/svg" xmlns:xlink="http://www.w3.org/1999/xlink" version="1.1" id="Capa_1" x="0px" y="0px" viewBox="0 0 512 512" style="enable-background:new 0 0 512 512;" xml:space="preserve" width="512" height="512">
<g>
	<path style="fill:#FF2C5C;" d="M489.5,444h-467c-8.284,0-15-6.716-15-15l0,0c0-8.284,6.716-15,15-15h467c8.284,0,15,6.716,15,15   l0,0C504.5,437.284,497.784,444,489.5,444z"/>
	<path style="fill:#E62753;" d="M489.5,414h-30c8.284,0,15,6.716,15,15c0,8.284-6.716,15-15,15h30c8.284,0,15-6.716,15-15   C504.5,420.716,497.784,414,489.5,414z"/>
	<circle style="fill:#685C79;" cx="79" cy="474.5" r="30"/>
	<circle style="fill:#685C79;" cx="433" cy="474.5" r="30"/>
	<path style="fill:#B0693C;" d="M380,414H132c-6.627,0-12-5.373-12-12V224c0-6.627,5.373-12,12-12h248c6.627,0,12,5.373,12,12v178   C392,408.627,386.627,414,380,414z"/>
	<path style="fill:#9C5D35;" d="M380,212h-30c6.627,0,12,5.373,12,12v178c0,6.627-5.373,12-12,12h30c6.627,0,12-5.373,12-12V224   C392,217.373,386.627,212,380,212z"/>
	<circle style="fill:#FFD659;" cx="256" cy="22.5" r="15"/>
	<path style="fill:#685C79;" d="M334,184v28h-26v-28c0-1.105-0.895-2-2-2H206c-1.105,0-2,0.895-2,2v28h-26v-28   c0-15.464,12.536-28,28-28h100C321.464,156,334,168.536,334,184z"/>
	<g>
		<path style="fill:#594F69;" d="M306,156h-26.031c15.328,0,27.772,12.318,27.99,27.594c0.027,0.131,0.041,0.267,0.041,0.406v28h26    v-28C334,168.536,321.464,156,306,156z"/>
	</g>
	<rect x="172" y="255" style="fill:#FFD659;" width="48" height="58"/>
	<circle style="fill:#3BE3EB;" cx="316" cy="353" r="32"/>
	<rect x="150.083" y="212" style="fill:#D5DFE8;" width="30" height="202"/>
	<rect x="331.879" y="212" style="fill:#D5DFE8;" width="30" height="202"/>
	<path d="M489.5,406.5h-26v-22.583c0-4.142-3.358-7.5-7.5-7.5s-7.5,3.358-7.5,7.5V406.5h-49.545c0.344-1.447,0.545-2.949,0.545-4.5   V224c0-10.752-8.748-19.5-19.5-19.5h-38.5V184c0-19.575-15.925-35.5-35.5-35.5H206c-19.575,0-35.5,15.925-35.5,35.5v20.5H132   c-10.752,0-19.5,8.748-19.5,19.5v32c0,4.142,3.358,7.5,7.5,7.5s7.5-3.358,7.5-7.5v-32c0-2.481,2.019-4.5,4.5-4.5h10.583v187H132   c-2.481,0-4.5-2.019-4.5-4.5V288c0-4.142-3.358-7.5-7.5-7.5s-7.5,3.358-7.5,7.5v114c0,1.551,0.201,3.053,0.545,4.5H63.5v-249   C63.5,95.467,113.967,45,176,45h72.5v19H178c-4.142,0-7.5,3.358-7.5,7.5s3.358,7.5,7.5,7.5h156c4.142,0,7.5-3.358,7.5-7.5   S338.142,64,334,64h-70.5V45H336c62.033,0,112.5,50.467,112.5,112.5v194.583c0,4.142,3.358,7.5,7.5,7.5s7.5-3.358,7.5-7.5V157.5   C463.5,87.196,406.304,30,336,30h-58.79c0.833-2.347,1.29-4.871,1.29-7.5C278.5,10.093,268.407,0,256,0s-22.5,10.093-22.5,22.5   c0,2.629,0.458,5.153,1.29,7.5H176C105.696,30,48.5,87.196,48.5,157.5v249h-26C10.093,406.5,0,416.593,0,429s10.093,22.5,22.5,22.5   h26.914c-4.952,6.356-7.914,14.336-7.914,23c0,20.678,16.822,37.5,37.5,37.5s37.5-16.822,37.5-37.5c0-8.664-2.961-16.644-7.914-23   H128c4.142,0,7.5-3.358,7.5-7.5s-3.358-7.5-7.5-7.5H22.5c-4.136,0-7.5-3.364-7.5-7.5s3.364-7.5,7.5-7.5h467   c4.136,0,7.5,3.364,7.5,7.5s-3.364,7.5-7.5,7.5H159.875c-4.142,0-7.5,3.358-7.5,7.5s3.358,7.5,7.5,7.5h243.539   c-4.952,6.356-7.914,14.336-7.914,23c0,20.678,16.822,37.5,37.5,37.5s37.5-16.822,37.5-37.5c0-8.664-2.961-16.644-7.914-23H489.5   c12.407,0,22.5-10.093,22.5-22.5S501.907,406.5,489.5,406.5z M248.5,22.5c0-4.136,3.364-7.5,7.5-7.5s7.5,3.364,7.5,7.5   S260.136,30,256,30S248.5,26.636,248.5,22.5z M79,497c-12.407,0-22.5-10.093-22.5-22.5c0-9.778,6.271-18.114,15-21.21v21.21   c0,4.142,3.358,7.5,7.5,7.5s7.5-3.358,7.5-7.5v-21.21c8.729,3.096,15,11.432,15,21.21C101.5,486.907,91.407,497,79,497z    M354.379,269.5h-15v-50h15V269.5z M187.583,262.5H212.5v43h-24.917V262.5z M187.583,320.5H220c4.142,0,7.5-3.358,7.5-7.5v-58   c0-4.142-3.358-7.5-7.5-7.5h-32.417v-28h136.796v94.914c-2.743-0.594-5.55-0.914-8.379-0.914c-21.78,0-39.5,17.72-39.5,39.5   s17.72,39.5,39.5,39.5c2.829,0,5.636-0.32,8.379-0.914V406.5H187.583V320.5z M300.5,204.5h-89v-15h89V204.5z M324.379,376.017   c-2.67,0.969-5.506,1.483-8.379,1.483c-13.509,0-24.5-10.991-24.5-24.5s10.991-24.5,24.5-24.5c2.873,0,5.709,0.514,8.379,1.483   V376.017z M185.5,184c0-11.304,9.196-20.5,20.5-20.5h100c11.304,0,20.5,9.196,20.5,20.5v20.5h-11V184c0-5.238-4.262-9.5-9.5-9.5   H206c-5.238,0-9.5,4.262-9.5,9.5v20.5h-11V184z M172.583,219.5v50h-15v-50H172.583z M157.583,406.5v-122h15v28.442   c0,0.02-0.003,0.038-0.003,0.058s0.003,0.038,0.003,0.058V406.5H157.583z M339.379,406.5v-122h15v122H339.379z M369.379,406.5v-187   H380c2.481,0,4.5,2.019,4.5,4.5v178c0,2.481-2.019,4.5-4.5,4.5H369.379z M433,497c-12.407,0-22.5-10.093-22.5-22.5   c0-9.778,6.271-18.114,15-21.21v21.21c0,4.142,3.358,7.5,7.5,7.5s7.5-3.358,7.5-7.5v-21.21c8.729,3.096,15,11.432,15,21.21   C455.5,486.907,445.407,497,433,497z"/>
</g>















</svg>
