<svg height="512" viewBox="0 0 54 60" width="512" xmlns="http://www.w3.org/2000/svg"><g id="Page-1" fill="none" fill-rule="evenodd"><g id="098---Luggage" fill="rgb(0,0,0)" fill-rule="nonzero"><path id="Shape" d="m20 20h2v2c0 .5522847.4477153 1 1 1s1-.4477153 1-1v-3c0-.5522847-.4477153-1-1-1h-3c-.5522847 0-1 .4477153-1 1s.4477153 1 1 1z"/><path id="Shape" d="m28 51.026v-35.026c0-1.1045695-.8954305-2-2-2v-7.184c1.1943509-.42225455 1.9947486-1.54921457 2-2.816v-1c0-1.65685425-1.3431458-3-3-3h-5c-1.6568542 0-3 1.34314575-3 3v1c.0052514 1.26678543.8056491 2.39374545 2 2.816v7.184h-9c-5.52033443.0060624-9.99393763 4.4796656-10 10v29c.00525139 1.2667854.80564914 2.3937454 2 2.816v1.184c0 1.6568542 1.34314575 3 3 3h2c1.65685425 0 3-1.3431458 3-3v-1h10.1c.4328973 2.1883499 2.2630814 3.8252062 4.4859932 4.0121242s4.3007406-1.121325 5.0929989-3.2066553c.7922583-2.0853302.1072674-4.4432233-1.6789921-5.7794689zm-9-48.026c0-.55228475.4477153-1 1-1h5c.5522847 0 1 .44771525 1 1v1c0 .55228475-.4477153 1-1 1h-5c-.5522847 0-1-.44771525-1-1zm2 4h3v7h-3zm-11 9h16v34.1c-1.2995874-.2654927-2.6514124-.0037124-3.7579449.7277244-1.1065325.7314367-1.8770823 1.8725821-2.1420551 3.1722756h-17.1c-.55228475 0-1-.4477153-1-1v-2h17c.5522847 0 1-.4477153 1-1s-.4477153-1-1-1h-17v-25c.00495988-4.4162219 3.58377808-7.9950401 8-8zm-2 41c0 .5522847-.44771525 1-1 1h-2c-.55228475 0-1-.4477153-1-1v-1h4zm17 1c-1.6568542 0-3-1.3431458-3-3s1.3431458-3 3-3 3 1.3431458 3 3-1.3431458 3-3 3z"/><circle id="Oval" cx="25" cy="55" r="1"/><path id="Shape" d="m5 47h3c.55228475 0 1-.4477153 1-1s-.44771525-1-1-1h-2v-21c0-2.209139 1.790861-4 4-4 .5522847 0 1-.4477153 1-1s-.4477153-1-1-1c-3.31233757.0033074-5.99669262 2.6876624-6 6v22c0 .5522847.44771525 1 1 1z"/><path id="Shape" d="m51 20h-4v-5c0-2.209139-1.790861-4-4-4s-4 1.790861-4 4v5h-4c-1.6568542 0-3 1.3431458-3 3v34c0 1.6568542 1.3431458 3 3 3h16c1.6568542 0 3-1.3431458 3-3v-34c0-1.6568542-1.3431458-3-3-3zm-4.92 38h-2.08v-12c1.6568542 0 3-1.3431458 3-3v-6c0-1.6568542-1.3431458-3-3-3v-12h2.08c.445776 3.0659953 2.8540047 5.474224 5.92 5.92v24.16c-3.0659953.445776-5.474224 2.8540047-5.92 5.92zm-12.08-5.92v-24.16c3.0659953-.445776 5.474224-2.8540047 5.92-5.92h2.08v12c-1.6568542 0-3 1.3431458-3 3v6c0 1.6568542 1.3431458 3 3 3v12h-2.08c-.445776-3.0659953-2.8540047-5.474224-5.92-5.92zm8-8.08c-.5522847 0-1-.4477153-1-1v-6c0-.5522847.4477153-1 1-1h2c.5522847 0 1 .4477153 1 1v6c0 .5522847-.4477153 1-1 1zm10-21v2.9c-1.9621984-.404488-3.495512-1.9378016-3.9-3.9h2.9c.5522847 0 1 .4477153 1 1zm-11-8c0-1.1045695.8954305-2 2-2s2 .8954305 2 2v5h-4zm-6 7h2.9c-.404488 1.9621984-1.9378016 3.495512-3.9 3.9v-2.9c0-.5522847.4477153-1 1-1zm-1 35v-2.9c1.9621984.404488 3.495512 1.9378016 3.9 3.9h-2.9c-.5522847 0-1-.4477153-1-1zm17 1h-2.9c.404488-1.9621984 1.9378016-3.495512 3.9-3.9v2.9c0 .5522847-.4477153 1-1 1z"/></g></g></svg>