<svg xmlns="http://www.w3.org/2000/svg" viewBox="0 0 35 35"><defs><style>.a{fill:#4a3b6c;}.b{fill:#fff;}</style></defs><title>ICONSSSS</title><circle class="a" cx="17.5" cy="17.5" r="17.5"/><ellipse class="b" cx="13.31" cy="13.35" rx="3.89" ry="4.12"/><path class="b" d="M22.16,16.88h0a3.26,3.26,0,0,0,2.37-1.07,3.58,3.58,0,0,0,.94-2.49,3.43,3.43,0,0,0-3.34-3.5h0a3.15,3.15,0,0,0-2.36,1.07,3.67,3.67,0,0,0,0,5A3.21,3.21,0,0,0,22.16,16.88Z"/><path class="b" d="M22.32,17.56H22a5.82,5.82,0,0,0-3.91,1.51,6.41,6.41,0,0,1,.74.64,7.74,7.74,0,0,1,1.61,2.39A7.56,7.56,0,0,1,21,24.63h7.14V23.39A5.85,5.85,0,0,0,22.32,17.56Z"/><path class="b" d="M17.25,20a6.22,6.22,0,0,0-3.74-1.24h-.39A6.27,6.27,0,0,0,6.85,25v.74H19.77V24.6A6.28,6.28,0,0,0,17.25,20Z"/></svg>