<?xml version="1.0" encoding="UTF-8"?>
<!DOCTYPE svg PUBLIC "-//W3C//DTD SVG 1.0//EN" "http://www.w3.org/TR/2001/REC-SVG-20010904/DTD/svg10.dtd">
<!-- Creator: CorelDRAW X8 -->
<svg xmlns="http://www.w3.org/2000/svg" xml:space="preserve" width="11in" height="11in" version="1.0" style="shape-rendering:geometricPrecision; text-rendering:geometricPrecision; image-rendering:optimizeQuality; fill-rule:evenodd; clip-rule:evenodd"
viewBox="0 0 11000 11000"
 xmlns:xlink="http://www.w3.org/1999/xlink">
 <defs>
  <style type="text/css">
   <![CDATA[
    .fil0 {fill:#4A3B6C}
    .fil1 {fill:white}
   ]]>
  </style>
 </defs>
 <g id="Layer_x0020_1">
  <metadata id="CorelCorpID_0Corel-Layer"/>
  <g id="_2727956972016">
   <g>
    <g>
     <circle id="SVGID_8_" class="fil0" cx="5500" cy="5500" r="5500"/>
    </g>
   </g>
  </g>
  <g id="_2727956974384">
   <g>
   </g>
  </g>
  <path class="fil1" d="M8737 2451l-6474 0c-252,0 -440,189 -440,440l0 1069 7323 0 0 -1100c31,-220 -189,-409 -409,-409zm-2294 975c-126,0 -252,-95 -252,-252 0,-125 95,-251 252,-251 126,0 251,94 251,251 -31,157 -125,252 -251,252zm880 0c-126,0 -252,-95 -252,-252 0,-125 95,-251 252,-251 126,0 251,94 251,251 -31,157 -125,252 -251,252zm880 0c-126,0 -252,-95 -252,-252 0,-125 95,-251 252,-251 126,0 251,94 251,251 -31,157 -125,252 -251,252z"/>
  <path class="fil1" d="M1823 4211l0 3898c0,251 188,440 440,440l6474 0c252,0 440,-189 440,-440l0 -3898 -7354 0zm5203 3867c953,0 1586,-669 1586,-1613 0,-108 -11,-191 -27,-274l-1558 0 0 567 937 0c-39,241 -284,712 -937,712 -563,0 -1023,-466 -1023,-1043 0,-576 460,-1043 1023,-1043 322,0 536,137 657,255l449 -431c-289,-270 -661,-432 -1107,-432 -912,0 -1651,739 -1651,1651 0,912 739,1651 1651,1651zm-3123 296l451 0 1132 -3988 -452 0 -1131 3988zm267 -3031c0,29 -29,59 -58,59l-351 0c-204,0 -233,87 -233,233l0 322 496 0c30,0 30,0 59,29 0,0 29,29 29,58l0 556c0,29 -29,58 -58,58l-497 0 0 1373c0,30 -29,59 -59,59l-555 0c-29,0 -58,-29 -58,-59l0 -1373 -439 0c-29,0 -58,-29 -58,-58l0 -556c0,-29 29,-58 58,-58l439 0 0 -380c0,-497 321,-818 789,-818l438 0c29,0 58,29 58,58l0 497 0 0z"/>
 </g>
</svg>
