<svg xmlns="http://www.w3.org/2000/svg" viewBox="0 0 35 35"><defs><style>.cls-1{fill:#4a3b6c;}.cls-2{fill:#fff;}</style></defs><title>usuarios</title><g id="Capa_2" data-name="Capa 2"><g id="Capa_3" data-name="Capa 3"><circle class="cls-1" cx="17.5" cy="17.5" r="17.5"/><polygon class="cls-2" points="25.54 24.13 25.54 21.39 23.62 21.39 23.62 24.13 20.89 24.13 20.89 26.04 23.62 26.04 23.62 28.77 25.54 28.77 25.54 26.04 28.27 26.04 28.27 24.13 25.54 24.13"/><path class="cls-2" d="M17.5,16.8a5.29,5.29,0,1,0-5.29-5.28A5.28,5.28,0,0,0,17.5,16.8Z"/><path class="cls-2" d="M22.41,22.92V20.18h.85a22.18,22.18,0,0,0-2.74-2.64,6.31,6.31,0,0,1-6,0c-1.86,1.67-4.7,3.52-4.7,8.74h9.9V24.13h0V22.92h2.73Z"/></g></g></svg>